  0
SECTION
  2
HEADER
  9
$ACADVER
  1
AC1024
  9
$ACADMAINTVER
 70
6
  9
$DWGCODEPAGE
  3
ANSI_1252
  9
$LASTSAVEDBY
  1
ezdxf
  9
$INSBASE
 10
0.0
 20
0.0
 30
0.0
  9
$EXTMIN
 10
1e+20
 20
1e+20
 30
1e+20
  9
$EXTMAX
 10
-1e+20
 20
-1e+20
 30
-1e+20
  9
$LIMMIN
 10
0.0
 20
0.0
  9
$LIMMAX
 10
420.0
 20
297.0
  9
$ORTHOMODE
 70
0
  9
$REGENMODE
 70
1
  9
$FILLMODE
 70
1
  9
$QTEXTMODE
 70
0
  9
$MIRRTEXT
 70
1
  9
$LTSCALE
 40
1.0
  9
$ATTMODE
 70
1
  9
$TEXTSIZE
 40
2.5
  9
$TRACEWID
 40
1.0
  9
$TEXTSTYLE
  7
Standard
  9
$CLAYER
  8
0
  9
$CELTYPE
  6
ByLayer
  9
$CECOLOR
 62
256
  9
$CELTSCALE
 40
1.0
  9
$DISPSILH
 70
0
  9
$DIMSCALE
 40
1.0
  9
$DIMASZ
 40
2.5
  9
$DIMEXO
 40
0.625
  9
$DIMDLI
 40
3.75
  9
$DIMRND
 40
0.0
  9
$DIMDLE
 40
0.0
  9
$DIMEXE
 40
1.25
  9
$DIMTP
 40
0.0
  9
$DIMTM
 40
0.0
  9
$DIMTXT
 40
2.5
  9
$DIMCEN
 40
2.5
  9
$DIMTSZ
 40
0.0
  9
$DIMTOL
 70
0
  9
$DIMLIM
 70
0
  9
$DIMTIH
 70
0
  9
$DIMTOH
 70
0
  9
$DIMSE1
 70
0
  9
$DIMSE2
 70
0
  9
$DIMTAD
 70
1
  9
$DIMZIN
 70
8
  9
$DIMBLK
  1

  9
$DIMASO
 70
1
  9
$DIMSHO
 70
1
  9
$DIMPOST
  1

  9
$DIMAPOST
  1

  9
$DIMALT
 70
0
  9
$DIMALTD
 70
3
  9
$DIMALTF
 40
0.03937007874
  9
$DIMLFAC
 40
1.0
  9
$DIMTOFL
 70
1
  9
$DIMTVP
 40
0.0
  9
$DIMTIX
 70
0
  9
$DIMSOXD
 70
0
  9
$DIMSAH
 70
0
  9
$DIMBLK1
  1

  9
$DIMBLK2
  1

  9
$DIMSTYLE
  2
ISO-25
  9
$DIMCLRD
 70
0
  9
$DIMCLRE
 70
0
  9
$DIMCLRT
 70
0
  9
$DIMTFAC
 40
1.0
  9
$DIMGAP
 40
0.625
  9
$DIMJUST
 70
0
  9
$DIMSD1
 70
0
  9
$DIMSD2
 70
0
  9
$DIMTOLJ
 70
0
  9
$DIMTZIN
 70
8
  9
$DIMALTZ
 70
0
  9
$DIMALTTZ
 70
0
  9
$DIMUPT
 70
0
  9
$DIMDEC
 70
2
  9
$DIMTDEC
 70
2
  9
$DIMALTU
 70
2
  9
$DIMALTTD
 70
3
  9
$DIMTXSTY
  7
Standard
  9
$DIMAUNIT
 70
0
  9
$DIMADEC
 70
0
  9
$DIMALTRND
 40
0.0
  9
$DIMAZIN
 70
0
  9
$DIMDSEP
 70
44
  9
$DIMATFIT
 70
3
  9
$DIMFRAC
 70
0
  9
$DIMLDRBLK
  1

  9
$DIMLUNIT
 70
2
  9
$DIMLWD
 70
-2
  9
$DIMLWE
 70
-2
  9
$DIMTMOVE
 70
0
  9
$DIMFXL
 40
1.0
  9
$DIMFXLON
 70
0
  9
$DIMJOGANG
 40
0.785398163397
  9
$DIMTFILL
 70
0
  9
$DIMTFILLCLR
 70
0
  9
$DIMARCSYM
 70
0
  9
$DIMLTYPE
  6

  9
$DIMLTEX1
  6

  9
$DIMLTEX2
  6

  9
$DIMTXTDIRECTION
 70
0
  9
$LUNITS
 70
2
  9
$LUPREC
 70
4
  9
$SKETCHINC
 40
1.0
  9
$FILLETRAD
 40
10.0
  9
$AUNITS
 70
0
  9
$AUPREC
 70
2
  9
$MENU
  1
.
  9
$ELEVATION
 40
0.0
  9
$PELEVATION
 40
0.0
  9
$THICKNESS
 40
0.0
  9
$LIMCHECK
 70
0
  9
$CHAMFERA
 40
0.0
  9
$CHAMFERB
 40
0.0
  9
$CHAMFERC
 40
0.0
  9
$CHAMFERD
 40
0.0
  9
$SKPOLY
 70
0
  9
$TDCREATE
 40
2460851.3992824075
  9
$TDUCREATE
 40
2458532.153996898
  9
$TDUPDATE
 40
2460851.3992824075
  9
$TDUUPDATE
 40
2458532.1544311
  9
$TDINDWG
 40
0.0
  9
$TDUSRTIMER
 40
0.0
  9
$USRTIMER
 70
1
  9
$ANGBASE
 50
0.0
  9
$ANGDIR
 70
0
  9
$PDMODE
 70
0
  9
$PDSIZE
 40
0.0
  9
$PLINEWID
 40
0.0
  9
$SPLFRAME
 70
0
  9
$SPLINETYPE
 70
6
  9
$SPLINESEGS
 70
8
  9
$HANDSEED
  5
3D
  9
$SURFTAB1
 70
6
  9
$SURFTAB2
 70
6
  9
$SURFTYPE
 70
6
  9
$SURFU
 70
6
  9
$SURFV
 70
6
  9
$UCSBASE
  2

  9
$UCSNAME
  2

  9
$UCSORG
 10
0.0
 20
0.0
 30
0.0
  9
$UCSXDIR
 10
1.0
 20
0.0
 30
0.0
  9
$UCSYDIR
 10
0.0
 20
1.0
 30
0.0
  9
$UCSORTHOREF
  2

  9
$UCSORTHOVIEW
 70
0
  9
$UCSORGTOP
 10
0.0
 20
0.0
 30
0.0
  9
$UCSORGBOTTOM
 10
0.0
 20
0.0
 30
0.0
  9
$UCSORGLEFT
 10
0.0
 20
0.0
 30
0.0
  9
$UCSORGRIGHT
 10
0.0
 20
0.0
 30
0.0
  9
$UCSORGFRONT
 10
0.0
 20
0.0
 30
0.0
  9
$UCSORGBACK
 10
0.0
 20
0.0
 30
0.0
  9
$PUCSBASE
  2

  9
$PUCSNAME
  2

  9
$PUCSORG
 10
0.0
 20
0.0
 30
0.0
  9
$PUCSXDIR
 10
1.0
 20
0.0
 30
0.0
  9
$PUCSYDIR
 10
0.0
 20
1.0
 30
0.0
  9
$PUCSORTHOREF
  2

  9
$PUCSORTHOVIEW
 70
0
  9
$PUCSORGTOP
 10
0.0
 20
0.0
 30
0.0
  9
$PUCSORGBOTTOM
 10
0.0
 20
0.0
 30
0.0
  9
$PUCSORGLEFT
 10
0.0
 20
0.0
 30
0.0
  9
$PUCSORGRIGHT
 10
0.0
 20
0.0
 30
0.0
  9
$PUCSORGFRONT
 10
0.0
 20
0.0
 30
0.0
  9
$PUCSORGBACK
 10
0.0
 20
0.0
 30
0.0
  9
$USERI1
 70
0
  9
$USERI2
 70
0
  9
$USERI3
 70
0
  9
$USERI4
 70
0
  9
$USERI5
 70
0
  9
$USERR1
 40
0.0
  9
$USERR2
 40
0.0
  9
$USERR3
 40
0.0
  9
$USERR4
 40
0.0
  9
$USERR5
 40
0.0
  9
$WORLDVIEW
 70
1
  9
$SHADEDGE
 70
3
  9
$SHADEDIF
 70
70
  9
$TILEMODE
 70
1
  9
$MAXACTVP
 70
64
  9
$PINSBASE
 10
0.0
 20
0.0
 30
0.0
  9
$PLIMCHECK
 70
0
  9
$PEXTMIN
 10
1e+20
 20
1e+20
 30
1e+20
  9
$PEXTMAX
 10
-1e+20
 20
-1e+20
 30
-1e+20
  9
$PLIMMIN
 10
0.0
 20
0.0
  9
$PLIMMAX
 10
420.0
 20
297.0
  9
$UNITMODE
 70
0
  9
$VISRETAIN
 70
1
  9
$PLINEGEN
 70
0
  9
$PSLTSCALE
 70
1
  9
$TREEDEPTH
 70
3020
  9
$CMLSTYLE
  2
Standard
  9
$CMLJUST
 70
0
  9
$CMLSCALE
 40
20.0
  9
$PROXYGRAPHICS
 70
1
  9
$MEASUREMENT
 70
1
  9
$CELWEIGHT
370
-1
  9
$ENDCAPS
280
0
  9
$JOINSTYLE
280
0
  9
$LWDISPLAY
290
0
  9
$INSUNITS
 70
6
  9
$HYPERLINKBASE
  1

  9
$STYLESHEET
  1

  9
$XEDIT
290
1
  9
$CEPSNTYPE
380
0
  9
$PSTYLEMODE
290
1
  9
$FINGERPRINTGUID
  2
{09657EA2-4A4A-4333-B9CE-19DA50EA59DB}
  9
$VERSIONGUID
  2
{64D70A7A-06A6-454B-9428-5E7AFC3ABB47}
  9
$EXTNAMES
290
1
  9
$PSVPSCALE
 40
0.0
  9
$OLESTARTUP
290
0
  9
$SORTENTS
280
127
  9
$INDEXCTL
280
0
  9
$HIDETEXT
280
1
  9
$XCLIPFRAME
280
1
  9
$HALOGAP
280
0
  9
$OBSCOLOR
 70
257
  9
$OBSLTYPE
280
0
  9
$INTERSECTIONDISPLAY
280
0
  9
$INTERSECTIONCOLOR
 70
257
  9
$DIMASSOC
280
2
  9
$PROJECTNAME
  1

  9
$CAMERADISPLAY
290
0
  9
$LENSLENGTH
 40
50.0
  9
$CAMERAHEIGHT
 40
0.0
  9
$STEPSPERSEC
 40
24.0
  9
$STEPSIZE
 40
100.0
  9
$3DDWFPREC
 40
2.0
  9
$PSOLWIDTH
 40
0.005
  9
$PSOLHEIGHT
 40
0.08
  9
$LOFTANG1
 40
1.570796326795
  9
$LOFTANG2
 40
1.570796326795
  9
$LOFTMAG1
 40
0.0
  9
$LOFTMAG2
 40
0.0
  9
$LOFTPARAM
 70
7
  9
$LOFTNORMALS
280
1
  9
$LATITUDE
 40
37.795
  9
$LONGITUDE
 40
-122.394
  9
$NORTHDIRECTION
 40
0.0
  9
$TIMEZONE
 70
-8000
  9
$LIGHTGLYPHDISPLAY
280
1
  9
$TILEMODELIGHTSYNCH
280
1
  9
$CMATERIAL
347
20
  9
$SOLIDHIST
280
0
  9
$SHOWHIST
280
1
  9
$DWFFRAME
280
2
  9
$DGNFRAME
280
2
  9
$REALWORLDSCALE
290
1
  9
$INTERFERECOLOR
 62
256
  9
$CSHADOW
280
0
  9
$SHADOWPLANELOCATION
 40
0.0
  0
ENDSEC
  0
SECTION
  2
CLASSES
  0
CLASS
  1
ACDBDICTIONARYWDFLT
  2
AcDbDictionaryWithDefault
  3
ObjectDBX Classes
 90
0
 91
0
280
0
281
0
  0
CLASS
  1
SUN
  2
AcDbSun
  3
SCENEOE
 90
1153
 91
0
280
0
281
0
  0
CLASS
  1
VISUALSTYLE
  2
AcDbVisualStyle
  3
ObjectDBX Classes
 90
4095
 91
0
280
0
281
0
  0
CLASS
  1
MATERIAL
  2
AcDbMaterial
  3
ObjectDBX Classes
 90
1153
 91
0
280
0
281
0
  0
CLASS
  1
SCALE
  2
AcDbScale
  3
ObjectDBX Classes
 90
1153
 91
0
280
0
281
0
  0
CLASS
  1
TABLESTYLE
  2
AcDbTableStyle
  3
ObjectDBX Classes
 90
4095
 91
0
280
0
281
0
  0
CLASS
  1
MLEADERSTYLE
  2
AcDbMLeaderStyle
  3
ACDB_MLEADERSTYLE_CLASS
 90
4095
 91
0
280
0
281
0
  0
CLASS
  1
DICTIONARYVAR
  2
AcDbDictionaryVar
  3
ObjectDBX Classes
 90
0
 91
0
280
0
281
0
  0
CLASS
  1
CELLSTYLEMAP
  2
AcDbCellStyleMap
  3
ObjectDBX Classes
 90
1152
 91
0
280
0
281
0
  0
CLASS
  1
MENTALRAYRENDERSETTINGS
  2
AcDbMentalRayRenderSettings
  3
SCENEOE
 90
1024
 91
0
280
0
281
0
  0
CLASS
  1
ACDBDETAILVIEWSTYLE
  2
AcDbDetailViewStyle
  3
ObjectDBX Classes
 90
1025
 91
0
280
0
281
0
  0
CLASS
  1
ACDBSECTIONVIEWSTYLE
  2
AcDbSectionViewStyle
  3
ObjectDBX Classes
 90
1025
 91
0
280
0
281
0
  0
CLASS
  1
RASTERVARIABLES
  2
AcDbRasterVariables
  3
ISM
 90
0
 91
0
280
0
281
0
  0
CLASS
  1
ACDBPLACEHOLDER
  2
AcDbPlaceHolder
  3
ObjectDBX Classes
 90
0
 91
0
280
0
281
0
  0
CLASS
  1
LAYOUT
  2
AcDbLayout
  3
ObjectDBX Classes
 90
0
 91
0
280
0
281
0
  0
ENDSEC
  0
SECTION
  2
TABLES
  0
TABLE
  2
VPORT
  5
8
330
0
100
AcDbSymbolTable
 70
1
  0
VPORT
  5
23
330
8
100
AcDbSymbolTableRecord
100
AcDbViewportTableRecord
  2
*Active
 70
0
 10
0.0
 20
0.0
 11
1.0
 21
1.0
 12
0.0
 22
0.0
 13
0.0
 23
0.0
 14
0.5
 24
0.5
 15
0.5
 25
0.5
 16
0.0
 26
0.0
 36
1.0
 17
0.0
 27
0.0
 37
0.0
 40
1000.0
 41
1.34
 42
50.0
 43
0.0
 44
0.0
 50
0.0
 51
0.0
 71
0
 72
1000
 73
1
 74
3
 75
0
 76
0
 77
0
 78
0
281
0
 65
0
146
0.0
  0
ENDTAB
  0
TABLE
  2
LTYPE
  5
2
330
0
100
AcDbSymbolTable
 70
3
  0
LTYPE
  5
24
330
2
100
AcDbSymbolTableRecord
100
AcDbLinetypeTableRecord
  2
ByBlock
 70
0
  3

 72
65
 73
0
 40
0.0
  0
LTYPE
  5
25
330
2
100
AcDbSymbolTableRecord
100
AcDbLinetypeTableRecord
  2
ByLayer
 70
0
  3

 72
65
 73
0
 40
0.0
  0
LTYPE
  5
26
330
2
100
AcDbSymbolTableRecord
100
AcDbLinetypeTableRecord
  2
Continuous
 70
0
  3

 72
65
 73
0
 40
0.0
  0
ENDTAB
  0
TABLE
  2
LAYER
  5
1
330
0
100
AcDbSymbolTable
 70
2
  0
LAYER
  5
27
330
1
100
AcDbSymbolTableRecord
100
AcDbLayerTableRecord
  2
0
 70
0
 62
7
  6
Continuous
370
-3
390
13
347
21
  0
LAYER
  5
28
330
1
100
AcDbSymbolTableRecord
100
AcDbLayerTableRecord
  2
Defpoints
 70
0
 62
7
  6
Continuous
290
0
370
-3
390
13
347
21
  0
ENDTAB
  0
TABLE
  2
STYLE
  5
5
330
0
100
AcDbSymbolTable
 70
1
  0
STYLE
  5
29
330
5
100
AcDbSymbolTableRecord
100
AcDbTextStyleTableRecord
  2
Standard
 70
0
 40
0.0
 41
1.0
 50
0.0
 71
0
 42
2.5
  3
txt
  4

  0
ENDTAB
  0
TABLE
  2
VIEW
  5
7
330
0
100
AcDbSymbolTable
 70
0
  0
ENDTAB
  0
TABLE
  2
UCS
  5
6
330
0
100
AcDbSymbolTable
 70
0
  0
ENDTAB
  0
TABLE
  2
APPID
  5
3
330
0
100
AcDbSymbolTable
 70
3
  0
APPID
  5
2A
330
3
100
AcDbSymbolTableRecord
100
AcDbRegAppTableRecord
  2
ACAD
 70
0
  0
APPID
  5
3A
330
3
100
AcDbSymbolTableRecord
100
AcDbRegAppTableRecord
  2
HATCHBACKGROUNDCOLOR
 70
0
  0
APPID
  5
3B
330
3
100
AcDbSymbolTableRecord
100
AcDbRegAppTableRecord
  2
EZDXF
 70
0
  0
ENDTAB
  0
TABLE
  2
DIMSTYLE
  5
4
330
0
100
AcDbSymbolTable
 70
1
100
AcDbDimStyleTable
  0
DIMSTYLE
105
2B
330
4
100
AcDbSymbolTableRecord
100
AcDbDimStyleTableRecord
  2
Standard
 70
0
 40
1.0
 41
2.5
 42
0.625
 43
3.75
 44
1.25
 45
0.0
 46
0.0
 47
0.0
 48
0.0
 49
2.5
140
2.5
141
2.5
142
0.0
143
0.03937007874
144
1.0
145
0.0
146
1.0
147
0.625
148
0.0
 69
0
 70
0
 71
0
 72
0
 73
0
 74
0
 75
0
 76
0
 77
1
 78
8
 79
3
170
0
171
3
172
1
173
0
174
0
175
0
176
0
177
0
178
0
179
2
271
2
272
2
273
2
274
3
275
0
276
0
277
2
278
44
279
0
280
0
281
0
282
0
283
0
284
8
285
0
286
0
288
0
289
3
290
0
371
-2
372
-2
  0
ENDTAB
  0
TABLE
  2
BLOCK_RECORD
  5
9
330
0
100
AcDbSymbolTable
 70
2
  0
BLOCK_RECORD
  5
17
330
9
100
AcDbSymbolTableRecord
100
AcDbBlockTableRecord
  2
*Model_Space
340
1A
 70
0
280
1
281
0
  0
BLOCK_RECORD
  5
1B
330
9
100
AcDbSymbolTableRecord
100
AcDbBlockTableRecord
  2
*Paper_Space
340
1E
 70
0
280
1
281
0
  0
ENDTAB
  0
ENDSEC
  0
SECTION
  2
BLOCKS
  0
BLOCK
  5
18
330
17
100
AcDbEntity
  8
0
100
AcDbBlockBegin
  2
*Model_Space
 70
0
 10
0.0
 20
0.0
 30
0.0
  3
*Model_Space
  1

  0
ENDBLK
  5
19
330
17
100
AcDbEntity
  8
0
100
AcDbBlockEnd
  0
BLOCK
  5
1C
330
1B
100
AcDbEntity
  8
0
100
AcDbBlockBegin
  2
*Paper_Space
 70
0
 10
0.0
 20
0.0
 30
0.0
  3
*Paper_Space
  1

  0
ENDBLK
  5
1D
330
1B
100
AcDbEntity
  8
0
100
AcDbBlockEnd
  0
ENDSEC
  0
SECTION
  2
ENTITIES
  0
ELLIPSE
  5
2F
330
17
100
AcDbEntity
  8
0
100
AcDbEllipse
 10
161.08389830508474
 20
32.83686440677966
 30
0.0
 11
12.000847457627119
 21
0.0
 31
0.0
 40
0.47404844290657444
 41
0.0
 42
6.283185307179586
  0
LWPOLYLINE
  5
30
330
17
100
AcDbEntity
  8
0
100
AcDbPolyline
 90
5
 70
1
 10
132.30677966101695
 20
42.26313559322034
 10
142.43898305084747
 20
42.26313559322034
 10
142.43898305084747
 20
25.48686440677966
 10
132.30677966101695
 20
25.48686440677966
 10
132.30677966101695
 20
42.26313559322034
  0
LINE
  5
31
330
17
100
AcDbEntity
  8
0
100
AcDbLine
 10
148.62627118644068
 20
48.07669491525424
 30
0.0
 11
158.50932203389831
 21
49.57161016949152
 31
0.0
  0
LWPOLYLINE
  5
32
330
17
100
AcDbEntity
  8
0
100
AcDbPolyline
 90
95
 70
0
 10
121.26101694915255
 20
37.072457627118645
 10
121.26101694915255
 20
37.15550847457627
 10
121.34406779661018
 20
37.23855932203389
 10
121.38559322033899
 20
37.28008474576271
 10
121.59322033898306
 20
37.32161016949152
 10
121.75932203389831
 20
37.487711864406776
 10
121.92542372881356
 20
37.73686440677966
 10
122.13305084745762
 20
38.110593220338984
 10
122.38220338983051
 20
38.73347457627119
 10
122.63135593220339
 20
39.356355932203385
 10
122.92203389830509
 20
40.14533898305085
 10
123.33728813559321
 20
41.058898305084746
 10
123.75254237288135
 20
42.05550847457627
 10
124.25084745762712
 20
43.21822033898305
 10
124.91525423728814
 20
44.38093220338983
 10
125.74576271186442
 20
45.70974576271186
 10
126.74237288135593
 20
47.0385593220339
 10
127.73898305084745
 20
48.53347457627119
 10
128.73559322033898
 20
50.19449152542373
 10
129.89830508474577
 20
51.35720338983051
 10
131.14406779661016
 20
52.686016949152545
 10
132.4728813559322
 20
53.93177966101695
 10
133.71864406779662
 20
54.84533898305085
 10
134.96440677966103
 20
55.67584745762712
 10
136.21016949152542
 20
56.42330508474576
 10
137.3728813559322
 20
57.00466101694915
 10
138.36949152542374
 20
57.33686440677966
 10
139.28305084745762
 20
57.66906779661017
 10
140.19661016949152
 20
57.7521186440678
 10
141.0271186440678
 20
57.7521186440678
 10
141.9406779661017
 20
57.7521186440678
 10
142.77118644067798
 20
57.66906779661017
 10
143.68474576271186
 20
57.33686440677966
 10
144.51525423728813
 20
57.00466101694915
 10
145.51186440677967
 20
56.340254237288136
 10
146.34237288135594
 20
55.75889830508475
 10
147.08983050847456
 20
55.177542372881355
 10
147.75423728813558
 20
54.51313559322034
 10
148.58474576271186
 20
53.59957627118644
 10
149.3322033898305
 20
52.60296610169492
 10
149.99661016949153
 20
51.68940677966101
 10
150.66101694915255
 20
50.60974576271187
 10
151.4084745762712
 20
49.44703389830509
 10
152.0728813559322
 20
48.11822033898305
 10
152.57118644067796
 20
47.0385593220339
 10
153.06949152542373
 20
45.543644067796606
 10
153.48474576271187
 20
44.21483050847458
 10
153.73389830508475
 20
42.80296610169492
 10
153.98305084745763
 20
41.47415254237288
 10
154.31525423728814
 20
40.228389830508476
 10
154.4813559322034
 20
39.23177966101695
 10
154.8135593220339
 20
38.48432203389831
 10
155.22881355932202
 20
37.570762711864404
 10
155.4779661016949
 20
36.82330508474576
 10
155.81016949152541
 20
36.40805084745763
 10
156.18389830508474
 20
35.99279661016949
 10
156.55762711864406
 20
35.702118644067795
 10
156.88983050847457
 20
35.45296610169491
 10
157.09745762711864
 20
35.4114406779661
 10
157.2635593220339
 20
35.32838983050847
 10
157.34661016949153
 20
35.28686440677966
 10
157.42966101694915
 20
35.24533898305085
 10
157.51271186440678
 20
35.24533898305085
 10
157.63728813559322
 20
35.24533898305085
 10
158.09406779661018
 20
35.24533898305085
 10
158.71694915254238
 20
35.24533898305085
 10
159.58898305084745
 20
35.24533898305085
 10
160.58559322033898
 20
35.4114406779661
 10
161.8313559322034
 20
35.82669491525424
 10
163.0771186440678
 20
36.325
 10
164.40593220338985
 20
36.98940677966102
 10
165.65169491525424
 20
37.570762711864404
 10
166.814406779661
 20
38.06906779661017
 10
168.14322033898304
 20
38.81652542372881
 10
169.72118644067797
 20
39.73008474576271
 10
170.96694915254238
 20
40.47754237288136
 10
172.62796610169494
 20
41.141949152542374
 10
174.7042372881356
 20
41.972457627118644
 10
176.69745762711864
 20
42.80296610169492
 10
178.44152542372882
 20
43.46737288135593
 10
180.01949152542375
 20
44.04872881355932
 10
181.7635593220339
 20
44.630084745762716
 10
183.3415254237288
 20
45.04533898305085
 10
184.67033898305084
 20
45.128389830508475
 10
185.91610169491526
 20
45.29449152542373
 10
187.07881355932204
 20
45.29449152542373
 10
187.90932203389832
 20
45.29449152542373
 10
188.82288135593222
 20
45.04533898305085
 10
189.65338983050847
 20
44.71313559322034
 10
190.40084745762712
 20
44.46398305084746
 10
190.73305084745763
 20
44.25635593220339
 10
191.02372881355933
 20
44.04872881355932
 10
191.2313559322034
 20
43.92415254237288
 10
191.314406779661
 20
43.84110169491525
 10
191.314406779661
 20
43.79957627118644
  0
LWPOLYLINE
  5
33
330
17
100
AcDbEntity
  8
0
100
AcDbPolyline
 90
24
 70
1
 10
184.0
 20
29.228571428571428
 10
184.0
 20
27.457142857142856
 10
184.28405571428573
 20
27.457142857142856
 10
184.56811142857143
 20
27.457142857142856
 10
184.5840557142857
 20
28.214285714285715
 10
184.6
 20
28.97142857142857
 10
185.77142857142857
 20
28.97142857142857
 10
186.94285714285715
 20
28.97142857142857
 10
186.95880142857143
 20
28.214285714285715
 10
186.97474571428572
 20
27.457142857142856
 10
187.25880142857142
 20
27.457142857142856
 10
187.54285714285714
 20
27.457142857142856
 10
187.54285714285714
 20
29.228571428571428
 10
187.54285714285714
 20
31.0
 10
187.2588501142857
 20
31.0
 10
186.9748430857143
 20
31.0
 10
186.95885011428572
 20
30.271428571428572
 10
186.94285714285715
 20
29.542857142857144
 10
185.75714285714287
 20
29.527412114285713
 10
184.57142857142858
 20
29.511967028571426
 10
184.57142857142858
 20
30.255983542857145
 10
184.57142857142858
 20
31.0
 10
184.28571428571428
 20
31.0
 10
184.0
 20
31.0
  0
LWPOLYLINE
  5
34
330
17
100
AcDbEntity
  8
0
100
AcDbPolyline
 90
24
 70
1
 10
188.34285714285716
 20
29.228571428571428
 10
188.34285714285716
 20
27.457142857142856
 10
190.0857142857143
 20
27.457142857142856
 10
191.82857142857142
 20
27.457142857142856
 10
191.82857142857142
 20
27.742857142857144
 10
191.82857142857142
 20
28.02857142857143
 10
190.37142857142857
 20
28.02857142857143
 10
188.9142857142857
 20
28.02857142857143
 10
188.9142857142857
 20
28.484641485714285
 10
188.9142857142857
 20
28.940711485714285
 10
190.21428571428572
 20
28.956070057142856
 10
191.5142857142857
 20
28.97142857142857
 10
191.5142857142857
 20
29.228571428571428
 10
191.5142857142857
 20
29.485714285714288
 10
190.22857142857143
 20
29.496685485714288
 10
188.94285714285715
 20
29.507656685714288
 10
188.92626045714286
 20
29.968114057142856
 10
188.90966371428573
 20
30.428571428571427
 10
190.3691176
 20
30.428571428571427
 10
191.82857142857142
 20
30.428571428571427
 10
191.82857142857142
 20
30.714285714285715
 10
191.82857142857142
 20
31.0
 10
190.0857142857143
 20
31.0
 10
188.34285714285716
 20
31.0
  0
LWPOLYLINE
  5
35
330
17
100
AcDbEntity
  8
0
100
AcDbPolyline
 90
36
 70
1
 10
192.68571428571428
 20
30.974415428571426
 10
192.68888337142857
 20
30.95528902857143
 10
192.7376589142857
 20
30.812790399999997
 10
192.79476851428572
 20
30.64929342857143
 10
192.86254702857144
 20
30.460129714285713
 10
192.9530098857143
 20
30.2236348
 10
193.02263908571427
 20
30.079637771428573
 10
193.08299685714286
 20
29.99677662857143
 10
193.14060714285714
 20
29.97142857142857
 10
193.21170742857143
 20
30.006128742857143
 10
193.28160880000001
 20
30.12028817142857
 10
193.37831411428573
 20
30.353031257142856
 10
193.58669537142856
 20
30.928571428571427
 10
193.58809662857144
 20
30.95665657142857
 10
193.5735664
 20
30.979826057142855
 10
193.5433130857143
 20
30.994988857142857
 10
193.5008752
 20
31.0
 10
193.4412597142857
 20
30.9811896
 10
193.39109817142858
 20
30.928410114285715
 10
193.34284702857144
 20
30.829400914285713
 10
193.28571428571428
 20
30.65714285714286
 10
193.24310382857144
 20
30.525724114285715
 10
193.20092885714286
 20
30.415
 10
193.16213017142857
 20
30.326615828571427
 10
193.14285714285714
 20
30.314285714285713
 10
193.1235841142857
 20
30.326615828571427
 10
193.08478542857142
 20
30.415
 10
193.04261045714287
 20
30.525724114285715
 10
193.0
 20
30.65714285714286
 10
192.944358
 20
30.824254628571428
 10
192.8958788
 20
30.925081085714286
 10
192.84669171428573
 20
30.980630914285715
 10
192.79095274285714
 20
31.0
 10
192.7506204
 20
30.99814862857143
 10
192.71662805714286
 20
30.992484514285714
 10
192.69223622857143
 20
30.984328114285713
  0
LWPOLYLINE
  5
36
330
17
100
AcDbEntity
  8
0
100
AcDbPolyline
 90
12
 70
1
 10
193.82857142857142
 20
30.47844405714286
 10
193.82857142857142
 20
29.956888057142855
 10
194.12520902857142
 20
29.9853912
 10
194.4516284
 20
30.085972628571426
 10
194.65038251428572
 20
30.2985928
 10
194.67255091428572
 20
30.56933634285714
 10
194.51868131428571
 20
30.832967028571428
 10
194.42118782857142
 20
30.918139028571428
 10
194.33324154285714
 20
30.96746697142857
 10
194.2317570857143
 20
30.992308685714285
 10
194.0901098857143
 20
31.0
 10
193.82857142857142
 20
31.0
  0
LWPOLYLINE
  5
37
330
17
100
AcDbEntity
  8
0
100
AcDbPolyline
 90
20
 70
1
 10
194.38857142857142
 20
30.70285714285714
 10
194.41489537142857
 20
30.6660188
 10
194.437
 20
30.610785714285715
 10
194.4520849142857
 20
30.547627771428573
 10
194.45714285714286
 20
30.485714285714288
 10
194.43841097142857
 20
30.360283085714286
 10
194.3834766857143
 20
30.270832857142857
 10
194.29063131428572
 20
30.21784137142857
 10
194.16
 20
30.2
 10
194.0653064
 20
30.208859142857143
 10
194.02228571428572
 20
30.239795942857143
 10
194.00355885714285
 20
30.306152742857144
 10
194.0
 20
30.485714285714288
 10
194.00355885714285
 20
30.665275828571428
 10
194.02228571428572
 20
30.73163262857143
 10
194.0653064
 20
30.762569428571428
 10
194.16
 20
30.771428571428572
 10
194.22628702857142
 20
30.766369485714286
 10
194.29314285714287
 20
30.751285714285714
 10
194.35100937142857
 20
30.729198914285714
  0
LWPOLYLINE
  5
38
330
17
100
AcDbEntity
  8
0
100
AcDbPolyline
 90
74
 70
1
 10
189.6
 20
26.72118737142857
 10
188.89864737142858
 20
26.316852742857144
 10
188.42396
 20
25.667544914285713
 10
188.25720954285714
 20
24.88406417142857
 10
188.42619782857142
 20
24.10014422857143
 10
188.58984011428572
 20
23.810779942857142
 10
188.80839611428573
 20
23.545707085714287
 10
189.06273697142856
 20
23.325584514285715
 10
189.33281885714285
 20
23.1700996
 10
189.77485817142858
 20
23.039366171428572
 10
190.24312714285713
 20
23.022213885714287
 10
190.68736954285714
 20
23.11791177142857
 10
191.0589154857143
 20
23.318602342857144
 10
191.15919045714287
 20
23.393591485714285
 10
191.24821674285715
 20
23.456803714285716
 10
191.32468594285714
 20
23.508627942857142
 10
191.3433516
 20
23.514285714285712
 10
191.35431811428572
 20
23.5067344
 10
191.363438
 20
23.476517885714287
 10
191.3699388
 20
23.4349932
 10
191.3723036
 20
23.385714285714286
 10
191.3867389142857
 20
23.266537142857143
 10
191.4299725142857
 20
23.193789714285714
 10
191.50985531428572
 20
23.15454754285714
 10
191.64285714285714
 20
23.1423048
 10
191.82857142857142
 20
23.1417524
 10
191.82857142857142
 20
24.0423048
 10
191.82857142857142
 20
24.942857142857143
 10
190.9142857142857
 20
24.942857142857143
 10
190.0
 20
24.942857142857143
 10
190.0
 20
24.65714285714286
 10
190.0
 20
24.37142857142857
 10
190.65714285714284
 20
24.37142857142857
 10
190.90911194285715
 20
24.367936114285715
 10
191.12125
 20
24.35716137142857
 10
191.29654497142857
 20
24.342364057142856
 10
191.31428571428572
 20
24.322859314285715
 10
191.27184525714284
 20
24.19541645714286
 10
191.09980565714287
 20
23.9884172
 10
190.89812737142856
 20
23.79322337142857
 10
190.72504571428573
 20
23.682596914285714
 10
190.4537528
 20
23.59961577142857
 10
190.12490708571428
 20
23.57171257142857
 10
189.8031265142857
 20
23.598119885714286
 10
189.5548664
 20
23.680480971428572
 10
189.24462462857142
 20
23.894648914285714
 10
189.01678965714285
 20
24.171772914285715
 10
188.87941885714287
 20
24.505516742857143
 10
188.83450634285714
 20
24.885714285714286
 10
188.86353594285714
 20
25.196361142857143
 10
188.94585782857143
 20
25.460627942857144
 10
189.09038005714285
 20
25.69816697142857
 10
189.30610314285715
 20
25.928666685714287
 10
189.78684302857144
 20
26.199288685714286
 10
190.34411337142856
 20
26.24219577142857
 10
190.87281965714286
 20
26.04976554285714
 10
191.2726844
 20
25.65748657142857
 10
191.39698788571428
 20
25.46785954285714
 10
191.62706537142856
 20
25.583810914285714
 10
191.8240668
 20
25.685025942857145
 10
191.86668222857142
 20
25.72159645714286
 10
191.8720650857143
 20
25.76387874285714
 10
191.82848497142857
 20
25.857304457142856
 10
191.69706874285714
 20
26.0516876
 10
191.50035805714285
 20
26.260985885714284
 10
191.27646685714285
 20
26.45079182857143
 10
191.06076885714285
 20
26.58633274285714
 10
190.88865097142858
 20
26.663007885714286
 10
190.72808017142856
 20
26.709683542857142
 10
190.53640417142856
 20
26.73656
 10
190.25714285714287
 20
26.751605314285715
 10
190.04977074285713
 20
26.75444697142857
 10
189.85196428571427
 20
26.749430685714287
 10
189.68500108571428
 20
26.7384788
  0
LWPOLYLINE
  5
39
330
17
100
AcDbEntity
  8
0
100
AcDbPolyline
 90
24
 70
1
 10
184.0
 20
26.401707257142856
 10
184.0
 20
26.146271657142858
 10
184.72857142857143
 20
26.130278685714284
 10
185.45714285714286
 20
26.114285714285714
 10
185.47256502857144
 20
24.9
 10
185.48798714285715
 20
23.685714285714287
 10
184.74086262857142
 20
23.685714285714287
 10
183.99373817142856
 20
23.685714285714287
 10
184.0111548
 20
23.426534628571428
 10
184.02857142857144
 20
23.16735502857143
 10
185.77142857142857
 20
23.16735502857143
 10
187.5142857142857
 20
23.16735502857143
 10
187.53170234285713
 20
23.426534628571428
 10
187.54911897142858
 20
23.685714285714287
 10
186.8031309142857
 20
23.685714285714287
 10
186.05714285714285
 20
23.685714285714287
 10
186.05714285714285
 20
24.914285714285715
 10
186.05714285714285
 20
26.142857142857142
 10
186.8
 20
26.142857142857142
 10
187.54285714285714
 20
26.142857142857142
 10
187.54285714285714
 20
26.4
 10
187.54285714285714
 20
26.65714285714286
 10
185.77142857142857
 20
26.65714285714286
 10
184.0
 20
26.65714285714286
  0
ENDSEC
  0
SECTION
  2
OBJECTS
  0
DICTIONARY
  5
A
330
0
100
AcDbDictionary
280
0
281
1
  3
ACAD_COLOR
350
B
  3
ACAD_GROUP
350
C
  3
ACAD_LAYOUT
350
D
  3
ACAD_MATERIAL
350
E
  3
ACAD_MLEADERSTYLE
350
F
  3
ACAD_MLINESTYLE
350
10
  3
ACAD_PLOTSETTINGS
350
11
  3
ACAD_PLOTSTYLENAME
350
12
  3
ACAD_SCALELIST
350
14
  3
ACAD_TABLESTYLE
350
15
  3
ACAD_VISUALSTYLE
350
16
  3
EZDXF_META
350
2D
  0
DICTIONARY
  5
B
330
A
100
AcDbDictionary
280
0
281
1
  0
DICTIONARY
  5
C
330
A
100
AcDbDictionary
280
0
281
1
  0
DICTIONARY
  5
D
330
A
100
AcDbDictionary
280
0
281
1
  3
Model
350
1A
  3
Layout1
350
1E
  0
DICTIONARY
  5
E
330
A
100
AcDbDictionary
280
0
281
1
  3
ByBlock
350
1F
  3
ByLayer
350
20
  3
Global
350
21
  0
DICTIONARY
  5
F
330
A
100
AcDbDictionary
280
0
281
1
  3
Standard
350
2C
  0
DICTIONARY
  5
10
330
A
100
AcDbDictionary
280
0
281
1
  3
Standard
350
22
  0
DICTIONARY
  5
11
330
A
100
AcDbDictionary
280
0
281
1
  0
ACDBDICTIONARYWDFLT
  5
12
330
A
100
AcDbDictionary
280
0
281
1
  3
Normal
350
13
100
AcDbDictionaryWithDefault
340
13
  0
ACDBPLACEHOLDER
  5
13
330
12
  0
DICTIONARY
  5
14
330
A
100
AcDbDictionary
280
0
281
1
  0
DICTIONARY
  5
15
330
A
100
AcDbDictionary
280
0
281
1
  0
DICTIONARY
  5
16
330
A
100
AcDbDictionary
280
0
281
1
  0
LAYOUT
  5
1A
330
D
100
AcDbPlotSettings
  1

  4
A3
  6

 40
7.5
 41
20.0
 42
7.5
 43
20.0
 44
420.0
 45
297.0
 46
0.0
 47
0.0
 48
0.0
 49
0.0
140
0.0
141
0.0
142
1.0
143
1.0
 70
1024
 72
1
 73
0
 74
5
  7

 75
16
 76
0
 77
2
 78
300
147
1.0
148
0.0
149
0.0
100
AcDbLayout
  1
Model
 70
1
 71
0
 10
0.0
 20
0.0
 11
420.0
 21
297.0
 12
0.0
 22
0.0
 32
0.0
 14
1e+20
 24
1e+20
 34
1e+20
 15
-1e+20
 25
-1e+20
 35
-1e+20
146
0.0
 13
0.0
 23
0.0
 33
0.0
 16
1.0
 26
0.0
 36
0.0
 17
0.0
 27
1.0
 37
0.0
 76
1
330
17
  0
LAYOUT
  5
1E
330
D
100
AcDbPlotSettings
  1

  4
A3
  6

 40
7.5
 41
20.0
 42
7.5
 43
20.0
 44
420.0
 45
297.0
 46
0.0
 47
0.0
 48
0.0
 49
0.0
140
0.0
141
0.0
142
1.0
143
1.0
 70
0
 72
1
 73
0
 74
5
  7

 75
16
 76
0
 77
2
 78
300
147
1.0
148
0.0
149
0.0
100
AcDbLayout
  1
Layout1
 70
1
 71
1
 10
0.0
 20
0.0
 11
420.0
 21
297.0
 12
0.0
 22
0.0
 32
0.0
 14
1e+20
 24
1e+20
 34
1e+20
 15
-1e+20
 25
-1e+20
 35
-1e+20
146
0.0
 13
0.0
 23
0.0
 33
0.0
 16
1.0
 26
0.0
 36
0.0
 17
0.0
 27
1.0
 37
0.0
 76
1
330
1B
  0
MATERIAL
  5
1F
102
{ACAD_REACTORS
330
E
102
}
330
E
100
AcDbMaterial
  1
ByBlock
  2

 70
0
 40
1.0
 71
1
 41
1.0
 91
-1023410177
 42
1.0
 72
1
  3

 73
1
 74
1
 75
1
 44
0.5
 73
0
 45
1.0
 46
1.0
 77
1
  4

 78
1
 79
1
170
1
 48
1.0
171
1
  6

172
1
173
1
174
1
140
1.0
141
1.0
175
1
  7

176
1
177
1
178
1
143
1.0
179
1
  8

270
1
271
1
272
1
145
1.0
146
1.0
273
1
  9

274
1
275
1
276
1
 42
1.0
 72
1
  3

 73
1
 74
1
 75
1
 94
63
  0
MATERIAL
  5
20
102
{ACAD_REACTORS
330
E
102
}
330
E
100
AcDbMaterial
  1
ByLayer
  2

 70
0
 40
1.0
 71
1
 41
1.0
 91
-1023410177
 42
1.0
 72
1
  3

 73
1
 74
1
 75
1
 44
0.5
 73
0
 45
1.0
 46
1.0
 77
1
  4

 78
1
 79
1
170
1
 48
1.0
171
1
  6

172
1
173
1
174
1
140
1.0
141
1.0
175
1
  7

176
1
177
1
178
1
143
1.0
179
1
  8

270
1
271
1
272
1
145
1.0
146
1.0
273
1
  9

274
1
275
1
276
1
 42
1.0
 72
1
  3

 73
1
 74
1
 75
1
 94
63
  0
MATERIAL
  5
21
102
{ACAD_REACTORS
330
E
102
}
330
E
100
AcDbMaterial
  1
Global
  2

 70
0
 40
1.0
 71
1
 41
1.0
 91
-1023410177
 42
1.0
 72
1
  3

 73
1
 74
1
 75
1
 44
0.5
 73
0
 45
1.0
 46
1.0
 77
1
  4

 78
1
 79
1
170
1
 48
1.0
171
1
  6

172
1
173
1
174
1
140
1.0
141
1.0
175
1
  7

176
1
177
1
178
1
143
1.0
179
1
  8

270
1
271
1
272
1
145
1.0
146
1.0
273
1
  9

274
1
275
1
276
1
 42
1.0
 72
1
  3

 73
1
 74
1
 75
1
 94
63
  0
MLINESTYLE
  5
22
102
{ACAD_REACTORS
330
10
102
}
330
10
100
AcDbMlineStyle
  2
Standard
 70
0
  3

 62
256
 51
90.0
 52
90.0
 71
2
 49
0.5
 62
256
  6
BYLAYER
 49
-0.5
 62
256
  6
BYLAYER
  0
MLEADERSTYLE
  5
2C
102
{ACAD_REACTORS
330
F
102
}
330
F
100
AcDbMLeaderStyle
179
2
170
2
171
1
172
0
 90
2
 40
0.0
 41
0.0
173
1
 91
-1056964608
 92
-2
290
1
 42
2.0
291
1
 43
8.0
  3
Standard
 44
4.0
300

342
29
174
1
175
1
176
0
178
1
 93
-1056964608
 45
4.0
292
0
297
0
 46
4.0
 94
-1056964608
 47
1.0
 49
1.0
140
1.0
294
1
141
0.0
177
0
142
1.0
295
0
296
0
143
3.75
271
0
272
9
273
9
  0
DICTIONARY
  5
2D
330
A
100
AcDbDictionary
281
1
  3
CREATED_BY_EZDXF
350
2E
  3
WRITTEN_BY_EZDXF
350
3C
  0
DICTIONARYVAR
  5
2E
330
2D
100
DictionaryVariables
280
0
  1
1.4.1 @ 2025-06-24T07:34:58.619031+00:00
  0
DICTIONARYVAR
  5
3C
330
2D
100
DictionaryVariables
280
0
  1
1.4.1 @ 2025-06-24T07:34:58.633485+00:00
  0
ENDSEC
  0
EOF
