  0
SECTION
  2
HEADER
  9
$ACADVER
  1
AC1006
  9
$EXTMIN
 10
0.000000
 20
0.000000
 30
0.000000
  9
$EXTMAX
 10
187.000000
 20
140.000000
 30
0.000000
  0
ENDSEC
  0
SECTION
  2
ENTITIES
  0
POLYLINE
  8
0
 66
1
 70
1
  0
VERTEX
  8
0
 10
0.000000
 20
109.000000
 42
0.000000
  0
VERTEX
  8
0
 10
0.000000
 20
78.000000
 42
0.000000
  0
VERTEX
  8
0
 10
4.970975
 20
78.000000
 42
0.000000
  0
VERTEX
  8
0
 10
9.941950
 20
78.000000
 42
0.000000
  0
VERTEX
  8
0
 10
10.220975
 20
91.250000
 42
0.000000
  0
VERTEX
  8
0
 10
10.500000
 20
104.500000
 42
0.000000
  0
VERTEX
  8
0
 10
31.000000
 20
104.500000
 42
0.000000
  0
VERTEX
  8
0
 10
51.500000
 20
104.500000
 42
0.000000
  0
VERTEX
  8
0
 10
51.779025
 20
91.250000
 42
0.000000
  0
VERTEX
  8
0
 10
52.058050
 20
78.000000
 42
0.000000
  0
VERTEX
  8
0
 10
57.029025
 20
78.000000
 42
0.000000
  0
VERTEX
  8
0
 10
62.000000
 20
78.000000
 42
0.000000
  0
VERTEX
  8
0
 10
62.000000
 20
109.000000
 42
0.000000
  0
VERTEX
  8
0
 10
62.000000
 20
140.000000
 42
0.000000
  0
VERTEX
  8
0
 10
57.029877
 20
140.000000
 42
0.000000
  0
VERTEX
  8
0
 10
52.059754
 20
140.000000
 42
0.000000
  0
VERTEX
  8
0
 10
51.779877
 20
127.250000
 42
0.000000
  0
VERTEX
  8
0
 10
51.500000
 20
114.500000
 42
0.000000
  0
VERTEX
  8
0
 10
30.750000
 20
114.229712
 42
0.000000
  0
VERTEX
  8
0
 10
10.000000
 20
113.959423
 42
0.000000
  0
VERTEX
  8
0
 10
10.000000
 20
126.979712
 42
0.000000
  0
VERTEX
  8
0
 10
10.000000
 20
140.000000
 42
0.000000
  0
VERTEX
  8
0
 10
5.000000
 20
140.000000
 42
0.000000
  0
VERTEX
  8
0
 10
0.000000
 20
140.000000
 42
0.000000
  0
SEQEND
  0
POLYLINE
  8
0
 66
1
 70
1
  0
VERTEX
  8
0
 10
76.000000
 20
109.000000
 42
0.000000
  0
VERTEX
  8
0
 10
76.000000
 20
78.000000
 42
0.000000
  0
VERTEX
  8
0
 10
106.500000
 20
78.000000
 42
0.000000
  0
VERTEX
  8
0
 10
137.000000
 20
78.000000
 42
0.000000
  0
VERTEX
  8
0
 10
137.000000
 20
83.000000
 42
0.000000
  0
VERTEX
  8
0
 10
137.000000
 20
88.000000
 42
0.000000
  0
VERTEX
  8
0
 10
111.500000
 20
88.000000
 42
0.000000
  0
VERTEX
  8
0
 10
86.000000
 20
88.000000
 42
0.000000
  0
VERTEX
  8
0
 10
86.000000
 20
95.981226
 42
0.000000
  0
VERTEX
  8
0
 10
86.000000
 20
103.962451
 42
0.000000
  0
VERTEX
  8
0
 10
108.750000
 20
104.231226
 42
0.000000
  0
VERTEX
  8
0
 10
131.500000
 20
104.500000
 42
0.000000
  0
VERTEX
  8
0
 10
131.500000
 20
109.000000
 42
0.000000
  0
VERTEX
  8
0
 10
131.500000
 20
113.500000
 42
0.000000
  0
VERTEX
  8
0
 10
109.000000
 20
113.691996
 42
0.000000
  0
VERTEX
  8
0
 10
86.500000
 20
113.883992
 42
0.000000
  0
VERTEX
  8
0
 10
86.209558
 20
121.941996
 42
0.000000
  0
VERTEX
  8
0
 10
85.919115
 20
130.000000
 42
0.000000
  0
VERTEX
  8
0
 10
111.459558
 20
130.000000
 42
0.000000
  0
VERTEX
  8
0
 10
137.000000
 20
130.000000
 42
0.000000
  0
VERTEX
  8
0
 10
137.000000
 20
135.000000
 42
0.000000
  0
VERTEX
  8
0
 10
137.000000
 20
140.000000
 42
0.000000
  0
VERTEX
  8
0
 10
106.500000
 20
140.000000
 42
0.000000
  0
VERTEX
  8
0
 10
76.000000
 20
140.000000
 42
0.000000
  0
SEQEND
  0
POLYLINE
  8
0
 66
1
 70
1
  0
VERTEX
  8
0
 10
152.000000
 20
139.552270
 42
0.082284
  0
VERTEX
  8
0
 10
152.055459
 20
139.217558
 42
0.000695
  0
VERTEX
  8
0
 10
152.909031
 20
136.723832
 42
0.002437
  0
VERTEX
  8
0
 10
153.908449
 20
133.862635
 42
0.001565
  0
VERTEX
  8
0
 10
155.094573
 20
130.552270
 42
0.009079
  0
VERTEX
  8
0
 10
156.677673
 20
126.413609
 42
0.033462
  0
VERTEX
  8
0
 10
157.896184
 20
123.893661
 42
0.056184
  0
VERTEX
  8
0
 10
158.952445
 20
122.443591
 42
0.210269
  0
VERTEX
  8
0
 10
159.960625
 20
122.000000
 42
0.231002
  0
VERTEX
  8
0
 10
161.204880
 20
122.607253
 42
0.056708
  0
VERTEX
  8
0
 10
162.428154
 20
124.605043
 42
0.021169
  0
VERTEX
  8
0
 10
164.120497
 20
128.678047
 42
0.002043
  0
VERTEX
  8
0
 10
167.767169
 20
138.750000
 42
0.147783
  0
VERTEX
  8
0
 10
167.791691
 20
139.241490
 42
0.159604
  0
VERTEX
  8
0
 10
167.537412
 20
139.646956
 42
0.115271
  0
VERTEX
  8
0
 10
167.007979
 20
139.912305
 42
0.058836
  0
VERTEX
  8
0
 10
166.265316
 20
140.000000
 42
0.154022
  0
VERTEX
  8
0
 10
165.222045
 20
139.670818
 42
0.100102
  0
VERTEX
  8
0
 10
164.344218
 20
138.747177
 42
0.053533
  0
VERTEX
  8
0
 10
163.499823
 20
137.014516
 42
0.013126
  0
VERTEX
  8
0
 10
162.500000
 20
134.000000
 42
-0.009769
  0
VERTEX
  8
0
 10
161.754317
 20
131.700172
 42
-0.015430
  0
VERTEX
  8
0
 10
161.016255
 20
129.762500
 42
-0.009430
  0
VERTEX
  8
0
 10
160.337278
 20
128.215777
 42
-0.292511
  0
VERTEX
  8
0
 10
160.000000
 20
128.000000
 42
-0.292511
  0
VERTEX
  8
0
 10
159.662722
 20
128.215777
 42
-0.009430
  0
VERTEX
  8
0
 10
158.983745
 20
129.762500
 42
-0.015430
  0
VERTEX
  8
0
 10
158.245683
 20
131.700172
 42
-0.009769
  0
VERTEX
  8
0
 10
157.500000
 20
134.000000
 42
0.013709
  0
VERTEX
  8
0
 10
156.526265
 20
136.924456
 42
0.049717
  0
VERTEX
  8
0
 10
155.677879
 20
138.688919
 42
0.088826
  0
VERTEX
  8
0
 10
154.817105
 20
139.661041
 42
0.168798
  0
VERTEX
  8
0
 10
153.841673
 20
140.000000
 42
0.022939
  0
VERTEX
  8
0
 10
153.135857
 20
139.967601
 42
0.036702
  0
VERTEX
  8
0
 10
152.540991
 20
139.868479
 42
0.042134
  0
VERTEX
  8
0
 10
152.114134
 20
139.725742
 42
0.299468
  0
SEQEND
  0
POLYLINE
  8
0
 66
1
 70
1
  0
VERTEX
  8
0
 10
172.000000
 20
130.872771
 42
0.000000
  0
VERTEX
  8
0
 10
172.000000
 20
121.745541
 42
0.000000
  0
VERTEX
  8
0
 10
177.191158
 20
122.244346
 42
0.101906
  0
VERTEX
  8
0
 10
182.903497
 20
124.004521
 42
0.159881
  0
VERTEX
  8
0
 10
186.381694
 20
127.725374
 42
0.178319
  0
VERTEX
  8
0
 10
186.769641
 20
132.463386
 42
0.129254
  0
VERTEX
  8
0
 10
184.076923
 20
137.076923
 42
0.033689
  0
VERTEX
  8
0
 10
182.370787
 20
138.567433
 42
0.069879
  0
VERTEX
  8
0
 10
180.831727
 20
139.430672
 42
0.065880
  0
VERTEX
  8
0
 10
179.055749
 20
139.865402
 42
0.027130
  0
VERTEX
  8
0
 10
176.576923
 20
140.000000
 42
0.000000
  0
VERTEX
  8
0
 10
172.000000
 20
140.000000
 42
0.000000
  0
SEQEND
  0
POLYLINE
  8
0
 66
1
 70
1
  0
VERTEX
  8
0
 10
181.800000
 20
134.800000
 42
-0.082665
  0
VERTEX
  8
0
 10
182.260669
 20
134.155329
 42
-0.037420
  0
VERTEX
  8
0
 10
182.647500
 20
133.188750
 42
-0.035729
  0
VERTEX
  8
0
 10
182.911486
 20
132.083486
 42
-0.040779
  0
VERTEX
  8
0
 10
183.000000
 20
131.000000
 42
-0.074258
  0
VERTEX
  8
0
 10
182.672192
 20
128.804954
 42
-0.127818
  0
VERTEX
  8
0
 10
181.710842
 20
127.239575
 42
-0.124212
  0
VERTEX
  8
0
 10
180.086048
 20
126.312224
 42
-0.067973
  0
VERTEX
  8
0
 10
177.800000
 20
126.000000
 42
-0.046676
  0
VERTEX
  8
0
 10
176.142862
 20
126.155035
 42
-0.221976
  0
VERTEX
  8
0
 10
175.390000
 20
126.696429
 42
-0.118260
  0
VERTEX
  8
0
 10
175.062280
 20
127.857673
 42
-0.009909
  0
VERTEX
  8
0
 10
175.000000
 20
131.000000
 42
-0.009909
  0
VERTEX
  8
0
 10
175.062280
 20
134.142327
 42
-0.118260
  0
VERTEX
  8
0
 10
175.390000
 20
135.303571
 42
-0.221976
  0
VERTEX
  8
0
 10
176.142862
 20
135.844965
 42
-0.046676
  0
VERTEX
  8
0
 10
177.800000
 20
136.000000
 42
-0.038105
  0
VERTEX
  8
0
 10
178.960023
 20
135.911466
 42
-0.034792
  0
VERTEX
  8
0
 10
180.130000
 20
135.647500
 42
-0.036597
  0
VERTEX
  8
0
 10
181.142664
 20
135.260981
 42
-0.087124
  0
SEQEND
  0
POLYLINE
  8
0
 66
1
 70
1
  0
VERTEX
  8
0
 10
98.000000
 20
65.120779
 42
0.103537
  0
VERTEX
  8
0
 10
85.726329
 20
58.044923
 42
0.105498
  0
VERTEX
  8
0
 10
77.419300
 20
46.682036
 42
0.106070
  0
VERTEX
  8
0
 10
74.501167
 20
32.971123
 42
0.105728
  0
VERTEX
  8
0
 10
77.458462
 20
19.252524
 42
0.045878
  0
VERTEX
  8
0
 10
80.322202
 20
14.188649
 42
0.041592
  0
VERTEX
  8
0
 10
84.146932
 20
9.549874
 42
0.042399
  0
VERTEX
  8
0
 10
88.597897
 20
5.697729
 42
0.053199
  0
VERTEX
  8
0
 10
93.324330
 20
2.976743
 42
0.064341
  0
VERTEX
  8
0
 10
101.060018
 20
0.688908
 42
0.061294
  0
VERTEX
  8
0
 10
109.254725
 20
0.388743
 42
0.063261
  0
VERTEX
  8
0
 10
117.028967
 20
2.063456
 42
0.078521
  0
VERTEX
  8
0
 10
123.531021
 20
5.575541
 42
-0.004928
  0
VERTEX
  8
0
 10
125.285833
 20
6.887851
 42
-0.007413
  0
VERTEX
  8
0
 10
126.843793
 20
7.994065
 42
-0.003497
  0
VERTEX
  8
0
 10
128.182004
 20
8.900989
 42
-0.148226
  0
VERTEX
  8
0
 10
128.508653
 20
9.000000
 42
-0.310991
  0
VERTEX
  8
0
 10
128.700567
 20
8.867852
 42
-0.035833
  0
VERTEX
  8
0
 10
128.860165
 20
8.339063
 42
-0.033110
  0
VERTEX
  8
0
 10
128.973929
 20
7.612381
 42
-0.020576
  0
VERTEX
  8
0
 10
129.015313
 20
6.750000
 42
0.056927
  0
VERTEX
  8
0
 10
129.267931
 20
4.664400
 42
0.152131
  0
VERTEX
  8
0
 10
130.024519
 20
3.391320
 42
0.138889
  0
VERTEX
  8
0
 10
131.422468
 20
2.704582
 42
0.044438
  0
VERTEX
  8
0
 10
133.750000
 20
2.490334
 42
0.000000
  0
VERTEX
  8
0
 10
137.000000
 20
2.480667
 42
0.000000
  0
VERTEX
  8
0
 10
137.000000
 20
18.240334
 42
0.000000
  0
VERTEX
  8
0
 10
137.000000
 20
34.000000
 42
0.000000
  0
VERTEX
  8
0
 10
121.000000
 20
34.000000
 42
0.000000
  0
VERTEX
  8
0
 10
105.000000
 20
34.000000
 42
0.000000
  0
VERTEX
  8
0
 10
105.000000
 20
29.000000
 42
0.000000
  0
VERTEX
  8
0
 10
105.000000
 20
24.000000
 42
0.000000
  0
VERTEX
  8
0
 10
116.500000
 20
24.000000
 42
-0.006930
  0
VERTEX
  8
0
 10
120.909459
 20
23.938882
 42
-0.011514
  0
VERTEX
  8
0
 10
124.621875
 20
23.750324
 42
-0.005219
  0
VERTEX
  8
0
 10
127.689537
 20
23.491371
 42
-0.386755
  0
VERTEX
  8
0
 10
128.000000
 20
23.150038
 42
-0.162131
  0
VERTEX
  8
0
 10
127.257292
 20
20.919788
 42
-0.025254
  0
VERTEX
  8
0
 10
124.246599
 20
17.297301
 42
-0.028914
  0
VERTEX
  8
0
 10
120.717229
 20
13.881409
 42
-0.071388
  0
VERTEX
  8
0
 10
117.688300
 20
11.945446
 42
-0.064763
  0
VERTEX
  8
0
 10
112.940674
 20
10.493276
 42
-0.041444
  0
VERTEX
  8
0
 10
107.185874
 20
10.004970
 42
-0.041870
  0
VERTEX
  8
0
 10
101.554714
 20
10.467098
 42
-0.077532
  0
VERTEX
  8
0
 10
97.210162
 20
11.908417
 42
-0.064651
  0
VERTEX
  8
0
 10
91.780931
 20
15.656356
 42
-0.074826
  0
VERTEX
  8
0
 10
87.793819
 20
20.506026
 42
-0.074261
  0
VERTEX
  8
0
 10
85.389830
 20
26.346543
 42
-0.062399
  0
VERTEX
  8
0
 10
84.603861
 20
33.000000
 42
-0.043090
  0
VERTEX
  8
0
 10
85.111879
 20
38.436320
 42
-0.061416
  0
VERTEX
  8
0
 10
86.552512
 20
43.060989
 42
-0.061037
  0
VERTEX
  8
0
 10
89.081651
 20
47.217922
 42
-0.041919
  0
VERTEX
  8
0
 10
92.856805
 20
51.251667
 42
-0.111457
  0
VERTEX
  8
0
 10
101.269753
 20
55.987552
 42
-0.107346
  0
VERTEX
  8
0
 10
111.021984
 20
56.738426
 42
-0.106414
  0
VERTEX
  8
0
 10
120.274344
 20
53.370897
 42
-0.107780
  0
VERTEX
  8
0
 10
127.271977
 20
46.506015
 42
0.000000
  0
VERTEX
  8
0
 10
129.447288
 20
43.187542
 42
0.000000
  0
VERTEX
  8
0
 10
133.473644
 20
45.216691
 42
0.003897
  0
VERTEX
  8
0
 10
136.921169
 20
46.987954
 42
0.113891
  0
VERTEX
  8
0
 10
137.666939
 20
47.627938
 42
0.259692
  0
VERTEX
  8
0
 10
137.761139
 20
48.367878
 42
0.027473
  0
VERTEX
  8
0
 10
136.998487
 20
50.002828
 42
0.051589
  0
VERTEX
  8
0
 10
134.698703
 20
53.404533
 42
0.028425
  0
VERTEX
  8
0
 10
131.256266
 20
57.067253
 42
0.028189
  0
VERTEX
  8
0
 10
127.338170
 20
60.388857
 42
0.042926
  0
VERTEX
  8
0
 10
123.563455
 20
62.760823
 42
0.028077
  0
VERTEX
  8
0
 10
120.551392
 20
64.102638
 42
0.040051
  0
VERTEX
  8
0
 10
117.741403
 20
64.919462
 42
0.031771
  0
VERTEX
  8
0
 10
114.387073
 20
65.389800
 42
0.010983
  0
VERTEX
  8
0
 10
109.500000
 20
65.653093
 42
0.009078
  0
VERTEX
  8
0
 10
105.870988
 20
65.702822
 42
0.010451
  0
VERTEX
  8
0
 10
102.409375
 20
65.615037
 42
0.009623
  0
VERTEX
  8
0
 10
99.487519
 20
65.423379
 42
0.058035
  0
SEQEND
  0
POLYLINE
  8
0
 66
1
 70
1
  0
VERTEX
  8
0
 10
0.000000
 20
59.529877
 42
0.000000
  0
VERTEX
  8
0
 10
0.000000
 20
55.059754
 42
0.000000
  0
VERTEX
  8
0
 10
12.750000
 20
54.779877
 42
0.000000
  0
VERTEX
  8
0
 10
25.500000
 20
54.500000
 42
0.000000
  0
VERTEX
  8
0
 10
25.769888
 20
33.250000
 42
0.000000
  0
VERTEX
  8
0
 10
26.039775
 20
12.000000
 42
0.000000
  0
VERTEX
  8
0
 10
12.965096
 20
12.000000
 42
0.000000
  0
VERTEX
  8
0
 10
-0.109582
 20
12.000000
 42
0.000000
  0
VERTEX
  8
0
 10
0.195209
 20
7.464356
 42
0.000000
  0
VERTEX
  8
0
 10
0.500000
 20
2.928713
 42
0.000000
  0
VERTEX
  8
0
 10
31.000000
 20
2.928713
 42
0.000000
  0
VERTEX
  8
0
 10
61.500000
 20
2.928713
 42
0.000000
  0
VERTEX
  8
0
 10
61.804791
 20
7.464356
 42
0.000000
  0
VERTEX
  8
0
 10
62.109582
 20
12.000000
 42
0.000000
  0
VERTEX
  8
0
 10
49.054791
 20
12.000000
 42
0.000000
  0
VERTEX
  8
0
 10
36.000000
 20
12.000000
 42
0.000000
  0
VERTEX
  8
0
 10
36.000000
 20
33.500000
 42
0.000000
  0
VERTEX
  8
0
 10
36.000000
 20
55.000000
 42
0.000000
  0
VERTEX
  8
0
 10
49.000000
 20
55.000000
 42
0.000000
  0
VERTEX
  8
0
 10
62.000000
 20
55.000000
 42
0.000000
  0
VERTEX
  8
0
 10
62.000000
 20
59.500000
 42
0.000000
  0
VERTEX
  8
0
 10
62.000000
 20
64.000000
 42
0.000000
  0
VERTEX
  8
0
 10
31.000000
 20
64.000000
 42
0.000000
  0
VERTEX
  8
0
 10
0.000000
 20
64.000000
 42
0.000000
  0
SEQEND
  0
ENDSEC
  0
EOF
